<svg width="48" height="48" xmlns="http://www.w3.org/2000/svg" xmlns:xlink="http://www.w3.org/1999/xlink">
 <defs>
  <linearGradient y2="-Infinity" y1="-Infinity" xlink:href="#linearGradient6538" x2="Infinity" x1="Infinity" id="linearGradient7014"/>
  <linearGradient y2="-Infinity" y1="-Infinity" xlink:href="#linearGradient6513" x2="Infinity" x1="Infinity" id="linearGradient7006"/>
  <linearGradient y2="-Infinity" y1="-Infinity" xlink:href="#linearGradient6497" x2="Infinity" x1="Infinity" id="linearGradient7004"/>
  <linearGradient id="linearGradient9642">
   <stop stop-color="#787974" offset="0" id="stop9644"/>
   <stop stop-color="#787974" stop-opacity="0" offset="1" id="stop9646"/>
  </linearGradient>
  <radialGradient xlink:href="#linearGradient9642" r="358.44639" id="radialGradient5477" gradientUnits="userSpaceOnUse" gradientTransform="matrix(2.128891e-2,0.000000,0.000000,2.758631e-2,323.3674,-435.1040)" fy="-405.91246" fx="97.468247" cy="-405.91246" cx="97.468247"/>
  <linearGradient id="linearGradient6538">
   <stop stop-color="#ffffff" offset="0" id="stop6540"/>
   <stop stop-color="#ffffff" stop-opacity="0" offset="1" id="stop6542"/>
  </linearGradient>
  <linearGradient id="linearGradient6513">
   <stop stop-color="#ffffff" offset="0" id="stop6515"/>
   <stop stop-color="#ffffff" stop-opacity="0" offset="1" id="stop6517"/>
  </linearGradient>
  <linearGradient id="linearGradient6497">
   <stop stop-color="#ffffff" offset="0" id="stop6499"/>
   <stop stop-color="#ffffff" stop-opacity="0" offset="1" id="stop6501"/>
  </linearGradient>
 </defs>
 <g>
  <title>background</title>
  <rect fill="none" id="canvas_background" height="402" width="582" y="-1" x="-1"/>
 </g>
 <g>
  <title>Layer 1</title>
  <path fill="#c4c5c2" stroke-miterlimit="2" stroke-dashoffset="0" id="path6904" d="m19.999999,19.474918a3.500001,3.500001 0 1 1 -7.000001,0a3.500001,3.500001 0 1 1 7.000001,0z"/>
  <path fill="url(#linearGradient7004)" stroke-miterlimit="2" stroke-dashoffset="0" id="path6906" d="m19.999999,19.474918a3.500001,3.500001 0 1 1 -7.000001,0a3.500001,3.500001 0 1 1 7.000001,0z"/>
  <path fill="#c4c5c2" stroke-miterlimit="2" stroke-dashoffset="0" id="path6914" d="m27.000069,22.474818a3.500001,3.500001 0 1 1 -7.000001,0a3.500001,3.500001 0 1 1 7.000001,0z"/>
  <path fill="url(#linearGradient7006)" stroke-miterlimit="2" stroke-dashoffset="0" id="path6916" d="m26.999999,22.474918a3.500001,3.500001 0 1 1 -7.000001,0a3.500001,3.500001 0 1 1 7.000001,0z"/>
  <path fill="#888a85" fill-rule="evenodd" stroke-width="1px" id="path6932" d="m28.9564,22.640955c-0.00153,2.68456 -3.26926,3.71395 -3.26926,3.71395c0,0 2.34874,-1.62595 2.33685,-3.70501c0,0 0.93241,-0.00894 0.93241,-0.00894z"/>
  <path fill="#c4c5c2" stroke-miterlimit="2" stroke-dashoffset="0" id="path6936" d="m23.999996,26.975047a4,4 0 1 1 -8.000001,0a4,4 0 1 1 8.000001,0z"/>
  <path fill="url(#linearGradient7014)" stroke-miterlimit="2" stroke-dashoffset="0" id="path6938" d="m23.999996,26.975047a4,4 0 1 1 -8.000001,0a4,4 0 1 1 8.000001,0z"/>
  <path fill="#eaece8" stroke-width="0.721247" stroke-miterlimit="4" stroke-dashoffset="0" id="path5439" d="m37.481873,23.867677a13.500657,13.500657 0 1 1 -27.001314,0a13.500657,13.500657 0 1 1 27.001314,0z"/>
  <path opacity="0.105556" fill="#787974" fill-rule="evenodd" stroke-width="1px" id="path5342" d="m17.960156,12.304709c0.048567,0.175391 -0.125746,0.393457 -0.278976,0.597771c-0.201178,0.26825 -0.310016,0.447167 -0.079706,0.677487c0.143103,0.143093 0.578176,0.015799 0.717335,-0.039858c0.320982,-0.128393 0.672703,-0.229231 0.996301,-0.358662c0.24539,-0.098162 0.428641,-0.137051 0.677477,-0.19926c0.286347,-0.071587 0.570786,0.056996 0.677487,0.19926c0.067991,0.090662 -0.461189,0.489622 -0.518075,0.518065c-0.241695,0.120852 -0.472254,0.217696 -0.717335,0.278966c-0.301627,0.075412 -0.570786,0.177918 -0.876737,0.239108c-0.307309,0.06146 -0.522938,0.154359 -0.797041,0.318814c-0.339617,0.203774 -0.625245,0.505691 -0.916585,0.797041c-0.272215,0.272215 -0.366582,0.566122 -0.278966,0.916585c0.08426,0.337071 0.209747,0.456405 0.518075,0.518075c0.342853,0.068571 0.509895,-0.095376 0.677477,-0.318814c0.217956,-0.290611 0.301287,-0.65995 0.557923,-0.916585c0.21466,-0.21467 0.361748,-0.420751 0.597781,-0.597781c0.239308,-0.179476 0.420342,-0.273503 0.717335,-0.19926c0.246988,0.061749 0.448136,0.304823 0.717325,0.358672c0.226994,0.045391 0.560849,-0.2605 0.757183,-0.358672c0.042844,-0.021422 0.079706,-0.053131 0.119564,-0.079696c0.20708,-0.13806 0.549693,-0.079706 0.797031,-0.079706c0.2687,0 0.495514,0.128203 0.717325,0.239108c0.26843,0.134205 0.499998,0.125916 0.757183,0.318814c0.272205,0.204144 0.418375,0.358513 0.557933,0.637629c0.131818,0.263626 0.190082,0.4292 0.39852,0.637629c0.220433,0.220433 0.55958,0.36032 0.797021,0.597771c0.142734,0.142724 0.232307,0.530668 0.278976,0.717335c0.073185,0.292728 0.139219,0.59829 0,0.876737c-0.150694,0.301377 -0.331448,0.5832 -0.478227,0.876737c-0.144412,0.288843 -0.548495,0.530928 -0.797031,0.717335c-0.342563,0.256925 -0.750232,0.272015 -1.075997,0.597781c-0.374652,0.374642 -0.410005,0.595074 -0.757193,1.115845c-0.256536,0.384808 0.048746,0.555706 0.358672,0.478227c0.328042,-0.082013 0.631886,-0.157974 0.956443,-0.239118c0.053131,-0.013283 0.106271,-0.026565 0.159402,-0.039848c0.399559,-0.09989 0.716885,-0.418335 1.115855,-0.518075c0.496692,-0.124168 1.540831,0.645538 1.992582,0.916595c0.356206,0.213721 -0.06896,0.632256 -0.239108,0.717325c-0.316457,0.158234 -0.632166,0.19926 -0.996291,0.19926c-0.235683,0 -0.491849,-0.074453 -0.717335,-0.119554c-0.304753,-0.060951 -0.517126,-0.060481 -0.757183,0.119554c-0.266862,0.200159 -0.235593,0.457534 -0.079706,0.717335c0.155737,0.259552 0.409676,0.443122 0.478217,0.717335c0.086507,0.345999 -0.193118,0.530329 -0.438359,0.677477c-0.246229,0.147737 -0.671315,-0.039858 -0.956443,-0.039858c-0.361229,0 -0.710504,0.18418 -0.996291,0.39852c-0.129501,0.097123 -0.242754,0.612362 -0.278966,0.757183c-0.013293,0.053141 -0.026575,0.106271 -0.039858,0.159412c-0.097133,0.388563 0.027384,0.586505 0.159412,0.916585c0.095575,0.238948 0.327613,0.455966 0.438369,0.677487c0.13827,0.276529 0.228892,0.458802 0.079706,0.757183c-0.127164,0.254318 -0.175311,0.462157 -0.239118,0.717325c-0.044692,0.178777 0.20715,0.657363 0.278966,0.836889c0.144052,0.360111 0.010097,0.428282 -0.239118,0.677487c-0.220513,0.220513 -0.550892,0.275441 -0.797021,0.39851c-0.228902,0.114451 -0.680043,-0.020563 -0.916595,-0.079706c-0.266682,-0.066663 -0.514719,0.058104 -0.717335,0.159412c-0.321711,0.16086 -0.320682,0.316318 -0.557923,0c-0.251562,-0.335413 -0.46023,-0.685257 -0.557923,-1.075997c-0.013283,-0.053141 -0.026565,-0.106271 -0.039848,-0.159412c-0.066763,-0.267032 -0.039858,-0.595304 -0.039858,-0.876737c0,-0.287256 0.079706,-0.543911 0.079706,-0.836889c0,-0.315569 -0.753608,0.277538 -0.956433,0.358672c-0.093938,0.037571 -0.185988,0.079696 -0.278976,0.119554c-0.398211,0.170668 -0.358662,0.534543 -0.358662,0.876737c0,0.341075 0.19925,0.601526 0.19925,0.956443c0,0.341984 -0.402895,0.438369 -0.677467,0.438369c-0.390481,0 -0.571455,-0.451901 -0.836889,-0.717335c-0.253929,-0.253919 -0.687154,-0.537409 -0.836889,-0.836879c-0.211894,-0.423797 -0.28354,-0.664094 0.159402,-0.996301c0.253809,-0.190352 0.607628,-0.225666 0.797041,-0.478217c0.198981,-0.265314 0.481123,-0.6369 0,-0.757183c-0.327853,-0.081963 -0.455037,-0.195925 -0.836889,-0.119554c-0.066413,0.013283 -0.132837,0.026565 -0.19926,0.039848c-0.658601,0.131718 -0.654087,0.071477 -1.275257,-0.239108c-0.447007,-0.223509 -0.600198,-0.560349 -0.916585,-0.876737c-0.294546,-0.294546 -0.461678,-0.691029 -0.557923,-1.075997c-0.088594,-0.354338 -0.193458,-0.694105 -0.278966,-1.036149c-0.070049,-0.280175 -0.079696,-0.624746 -0.079696,-0.916585c0,-0.296653 -0.079706,-0.612651 -0.079706,-0.916595c0,-0.332097 0,-0.664194 0,-0.996291c0,-0.336092 0.039848,-0.633244 0.039848,-0.956443c0,-0.276869 0.054169,-0.615218 0.119554,-0.876747c0.006442,-0.025766 0,-0.053131 0,-0.079696c0,-0.339917 0.196823,-0.691329 0.318814,-0.996301c0.10748,-0.26872 0.274272,-0.548555 0.39852,-0.797031c0.13012,-0.260231 0.26057,-0.480284 0.438369,-0.717335c0.19195,-0.255936 0.396373,-0.515488 0.597771,-0.757183c0.346878,-0.416247 0.707438,-0.80564 1.115855,-1.155703c0.238659,-0.204553 0.356096,-0.546028 0.637629,-0.757173c0.348336,-0.261259 0.651581,-0.538508 0.996291,-0.797041c0.262058,-0.196544 0.501217,-0.423548 0.677477,-0.717335c0.143383,-0.238978 0.224338,-0.463446 0.438369,-0.677477c0.052611,-0.052611 0.229551,-0.134694 0.278976,-0.159402z"/>
  <path opacity="0.188889" fill="#787974" fill-rule="evenodd" stroke-width="1px" id="path5345" d="m28.959236,17.405729c-0.384489,0.09238 -1.151229,0.224068 -1.673778,0.119554c-0.400338,-0.080066 -0.413671,-0.303664 -0.797031,0.079706c-0.026575,0.026565 -0.053141,0.053131 -0.079716,0.079706c-0.242014,0.242014 -0.278956,0.278227 -0.278956,0.637629c0,0.235992 0.003535,0.4605 -0.039848,0.677477c-0.046619,0.233076 -0.011535,0.591489 0.039848,0.797031c0.078328,0.313312 0.127753,0.534473 0.278956,0.836889c0.120753,0.241495 0.177019,0.431647 0.39852,0.597781c0.287625,0.215709 0.683519,0.273404 0.996301,0.39851c0.220542,0.088225 0.589971,0.039858 0.836879,0.039858c0.313232,0 0.358672,0.035494 0.358672,0.39851c0,0.311614 -0.584897,0.749004 -0.757183,1.036149c-0.190641,0.317726 -0.117657,0.563625 0,0.916595c0.087706,0.263127 0.144611,0.523817 0.19925,0.797031c0.056966,0.284799 0.131259,0.489921 0.358672,0.717335c0.241875,0.241885 0.688053,-0.025756 0.916585,0.278966c0.11488,0.15316 0.119564,0.40672 0.119564,0.597771c0,0.316857 0.102377,0.466881 0.39851,0.318814c0.269579,-0.134784 0.471985,-0.124508 0.677487,-0.39852c0.195665,-0.26089 0.293697,-0.587404 0.438369,-0.876737c0.129012,-0.258034 0.349554,-0.278956 0.637629,-0.278956c0.266293,0 0.480174,0.06925 0.757183,0c0.405841,-0.101468 0.46771,-0.228602 0.757173,-0.518075c0.366193,-0.366193 0.322729,-0.62118 0.39852,-1.075997c0.034205,-0.205183 -0.033796,-0.454058 -0.079696,-0.637629c-0.013283,-0.053141 -0.026565,-0.106271 -0.039858,-0.159412c-0.055538,-0.22214 -0.543072,-0.239108 -0.717325,-0.239108c-0.385168,0 -0.956403,-0.189283 -1.315115,-0.278966c-0.183191,-0.04579 -0.691169,-0.651311 -0.836879,-0.797031c-0.210625,-0.210615 -0.252081,-0.370677 -0.318814,-0.637629c-0.082223,-0.328881 -0.03833,-0.671385 -0.119554,-0.996291c-0.093119,-0.372444 0.015829,-0.581941 -0.278966,-0.876737c-0.208718,-0.208728 -0.346289,-0.496063 -0.39852,-0.757193c-0.050384,-0.251932 -0.286796,-0.533914 -0.478217,-0.677477c-0.140027,-0.105013 -0.156586,-0.079137 -0.358662,-0.119554z"/>
  <path opacity="0.183333" fill="#787974" fill-rule="evenodd" stroke-width="1px" id="path5347" d="m35.096405,19.717136c-0.206591,0.006861 -0.418005,0.258593 -0.597781,0.438369c-0.17669,0.17669 -0.119554,0.479475 -0.119554,0.717325c0,0.260231 0.055937,0.542593 0.119554,0.797041c0.05396,0.215829 0.252671,0.491779 0.39852,0.637629c0.219793,0.219793 0.501107,0.349195 0.797031,0.39851c0.387565,0.064596 0.601066,0.111345 0.757193,-0.278956c0.10723,-0.268071 0.159402,-0.45243 0.159402,-0.757183c0,-0.27589 -0.012374,-0.487874 -0.079706,-0.757183c-0.081354,-0.325426 -0.186107,-0.491569 -0.478217,-0.637629c-0.20702,-0.103505 -0.417795,-0.343233 -0.597781,-0.478227c-0.103255,-0.077439 -0.235563,-0.079696 -0.358662,-0.079696z"/>
  <path opacity="0.472222" fill="#f3f4f2" fill-rule="evenodd" stroke-width="1px" id="path5349" d="m22.463385,32.150876c0.216038,-0.148057 0.844529,-0.792786 1.275267,-1.115845c0.083002,-0.062249 0.159402,-0.132837 0.239108,-0.19926c0.42955,-0.357953 0.803912,-0.926902 1.115855,-1.394812c0.494875,-0.742312 0.712221,-1.409123 0.876737,-2.231701c0.209008,-1.045038 0.261799,-0.347028 0.039848,0.318824c-0.034635,0.103915 -0.053131,0.212543 -0.079706,0.318804c-0.108888,0.435582 -0.151912,0.897859 -0.318804,1.315115c-0.225266,0.563166 -0.650382,1.047285 -0.797041,1.63392c-0.078248,0.313012 -0.184779,0.695583 -0.119564,0.956443c0.077938,0.311704 0.532086,-0.376619 0.836899,-0.478227c0.414759,-0.13825 0.518065,-0.228652 0.518065,0.239118c0,0.282711 -0.142564,0.672993 -0.19926,0.956443c-0.097733,0.488703 1.286363,0.07692 1.594072,0c1.005988,-0.251502 1.695979,-0.596353 2.510667,-1.275257c0.89712,-0.747595 1.643268,-1.563562 2.470799,-2.391113c0.665822,-0.665812 0.979134,-1.083358 0.557933,0.039858c-0.039858,0.106271 -0.079706,0.212543 -0.119554,0.318814c-0.039858,0.106271 -0.079696,0.212543 -0.119554,0.318814c-0.220582,0.588213 -0.623078,1.238985 -1.155703,1.594072c-0.829878,0.553249 -1.367777,1.580549 -2.271549,2.03243c-0.365783,0.182892 -0.748195,0.254548 -1.115845,0.438369c-0.368969,0.184489 0.717574,0.31444 0.916585,0.358672c2.000712,0.4446 -1.619039,0.637629 -2.072288,0.637629c-0.747555,0 -1.121328,-0.156126 -1.713626,0.19925c-0.202426,0.121452 0.942002,0.586925 0.996281,0.597781c0.466991,0.093398 0.883578,0.39852 1.394822,0.39852c0.848803,0 -1.770562,0.264725 -2.510657,0.079706c-0.620371,-0.155098 -1.208235,-0.282132 -1.83318,-0.438378c-0.317137,-0.079277 -0.635332,-0.03046 -0.916605,0.039858c-0.055907,0.013972 0.039858,0.822318 0.039858,0.916585c0,0.590231 -0.154489,1.05088 -0.438369,0.19926c-0.152911,-0.458752 -0.438369,-0.94309 -0.438369,-1.43466c0,-0.311254 -0.411024,0.468329 -0.597771,0.717335c-0.262987,0.350643 -0.780952,0.852788 -0.876737,0.876737c-0.013053,0.003256 0.257854,-0.553199 0.358662,-0.956443c0.075751,-0.303005 0.565213,-1.114028 0.239108,-1.195551c-0.304503,-0.076131 -0.724106,-0.017297 -1.036149,-0.079706c-0.462807,-0.092559 -0.95902,-0.180625 -1.394812,-0.39852c-0.84341,-0.4217 -2.160034,-0.809005 -3.06858,-1.036149c-0.083691,-0.020923 -1.453615,-1.493463 -0.159412,-0.19925c0.854326,0.854326 2.187738,1.43466 3.387404,1.43466c0.384409,0 0.955305,-0.149156 1.315106,-0.239108c0.216707,-0.054179 0.516097,-0.381792 0.757183,-0.478227c0.261649,-0.104654 -0.417366,-0.381293 -0.597771,-0.597771c-0.066423,-0.079706 -0.132847,-0.159412 -0.19927,-0.239108c-0.714389,-0.857282 -0.965162,-2.041179 -1.793312,-2.869329c-0.133236,-0.133226 -2.075085,-2.400061 -1.155703,-1.63392c0.950651,0.792207 1.829245,1.496499 2.630211,2.430951c0.410715,0.479175 0.763874,1.10429 1.155703,1.594072c0.394256,0.492837 0.311114,-0.102776 0.19925,-0.438369c-0.239807,-0.719442 -0.119544,-1.719229 -0.119544,-2.470809c0,-0.996761 0.514839,1.023226 0.557923,1.195551c0.123849,0.495404 0.379975,1.140573 0.757173,0.637629c0.389752,-0.519663 0.438369,-0.617904 0.438369,0.039858c0,0.053131 0,0.106271 0,0.159402c0,0.247328 -0.013123,0.532146 0.039848,0.797031z"/>
  <path opacity="0.116667" fill="#787974" fill-rule="evenodd" stroke-width="1px" id="path5351" d="m34.139962,23.383496c0.079886,0.084989 0.159412,0.376779 0.159412,0.637629c0,0.106132 -0.658971,0.619103 -0.757193,0.717335c-0.19172,0.19171 -0.23039,0.51429 -0.278956,0.757173c-0.062588,0.312912 -0.141096,0.529979 -0.079706,0.836889c0.052022,0.260121 0.159961,0.519193 0.278956,0.757183c0.143193,0.286367 0.350783,0.430479 0.597781,0.677487c0.275131,0.275131 0.614828,0.273264 0.956433,0.358662c0.434254,0.108558 -0.258044,0.522319 -0.358662,0.597781c-0.267581,0.200688 -0.528411,0.259791 -0.677477,0.557923c-0.172675,0.34535 0.184519,0.472324 0.39852,0.557923c0.241585,0.096634 0.60589,-0.32963 0.717335,-0.478227c0.150454,-0.200608 0.39852,-0.426564 0.39852,-0.677477c0,-0.246648 0.119544,-0.507598 0.119544,-0.797031c0,-0.269938 0.06131,-0.564045 0.119554,-0.797041c0.088744,-0.354947 0.216967,-0.495913 0.438369,-0.717325c0.178407,-0.178397 0.173943,-0.619392 0.119564,-0.836889c-0.062359,-0.249415 -0.218725,-0.476359 -0.278966,-0.717335c-0.06144,-0.24574 -0.361549,-0.389273 -0.557923,-0.438369c-0.235952,-0.058983 -0.566741,-0.487035 -0.717335,-0.637629c-0.20734,-0.20734 -0.29911,-0.358662 -0.597771,-0.358662z"/>
  <path fill="none" fill-opacity="0.75" fill-rule="evenodd" stroke="#000000" stroke-width="1.001306px" id="path5353" d="m16.804362,22.347377c-0.009398,-0.009398 0.026575,0 0,0z"/>
  <path opacity="0.2" fill="#938f8b" fill-rule="evenodd" stroke-width="1px" id="path5355" d="m21.706212,12.70322c0.171706,-0.042495 0.570916,-0.172615 0.836879,-0.239108c0.339897,-0.084969 0.696532,0.119554 1.036149,0.119554c0.034485,0 0.254938,0.438369 0.637629,0.438369c0.053141,0 0.106271,0 0.159412,0c0.241325,0 0.511064,0.192249 0.677477,0.358672c0.1607,0.160691 0.013552,0.54437 -0.079706,0.637629c-0.253849,0.253839 -0.480943,0.07697 -0.677477,-0.119564c-0.210256,-0.210256 -0.320562,-0.289363 -0.597781,-0.358662c-0.275271,-0.06882 -0.569428,-0.027015 -0.836879,0.039858c-0.326614,0.081654 -0.541224,0.159402 -0.916595,0.159402c-0.125456,0 -0.511433,-0.54465 -0.557933,-0.637629c-0.081983,-0.163976 0.218465,-0.373423 0.318824,-0.39852z"/>
  <path opacity="0.288889" fill="#938f8b" fill-rule="evenodd" stroke-width="1px" id="path5357" d="m26.528275,13.380707c0.197273,0.051163 0.639606,0.039349 0.956433,-0.039858c0.351162,-0.087786 0.907097,-0.131888 1.275267,-0.039848c0.223069,0.055767 1.585203,0.323249 0.956433,0.637629c-0.311084,0.155547 -0.640385,0.192938 -0.916585,0.358662c-0.332516,0.19951 0.401766,0.278966 0.557923,0.278966c0.423668,0 0.180205,0.509975 0.079706,0.677477c-0.156726,0.261199 -0.050314,0.665003 0,0.916595c0.056996,0.284959 0.546807,0.239108 0.797031,0.239108c0.342773,0 0.631067,0.044392 0.836889,0.318814c0.182013,0.242684 0.434094,0.486765 0.318814,0.717335c-0.118735,0.23747 -0.720471,0.278956 -0.916585,0.278956c-0.151373,0 -0.749413,-0.761907 -0.836899,-0.836889c-0.23017,-0.197293 -0.499209,-0.014671 -0.717315,0.039858c-0.388334,0.097073 -0.6752,-0.396613 -0.916605,-0.597781c-0.261199,-0.217666 -0.424596,-0.530389 -0.557923,-0.797031c-0.16867,-0.33734 0.103715,-0.478227 -0.39851,-0.478227c-0.311893,0 -0.482511,-0.062988 -0.717345,-0.239108c-0.318864,-0.239148 -0.557913,-0.146699 -0.557913,-0.597781c0,-0.398161 0.021662,-0.515128 0.358662,-0.717325c0.108129,-0.064875 0.253619,-0.032617 0.39852,-0.119554z"/>
  <path opacity="0.177778" fill="url(#radialGradient5477)" fill-rule="evenodd" stroke-width="1px" id="path5359" d="m17.990686,12.193045c0.048577,0.175401 -0.125726,0.393467 -0.278966,0.597781c-0.201178,0.26825 -0.310016,0.447157 -0.079706,0.677477c0.143103,0.143103 0.578176,0.015809 0.717335,-0.039848c0.320982,-0.128393 0.672703,-0.229231 0.996291,-0.358672c0.2454,-0.098152 0.428651,-0.137051 0.677487,-0.19926c0.286347,-0.071577 0.570786,0.057006 0.677477,0.19926c0.068001,0.090672 -0.461189,0.489632 -0.518075,0.518075c-0.241695,0.120852 -0.472244,0.217696 -0.717325,0.278966c-0.301627,0.075402 -0.570786,0.177918 -0.876747,0.239108c-0.307299,0.06146 -0.522928,0.154349 -0.797031,0.318814c-0.339617,0.203774 -0.625245,0.505691 -0.916585,0.797031c-0.272225,0.272225 -0.366582,0.566132 -0.278966,0.916595c0.08426,0.337071 0.209747,0.456405 0.518065,0.518075c0.342863,0.068571 0.509905,-0.095376 0.677487,-0.318814c0.217956,-0.290611 0.301287,-0.65995 0.557923,-0.916595c0.21466,-0.21466 0.361738,-0.420751 0.597781,-0.597771c0.239298,-0.179476 0.420342,-0.273503 0.717325,-0.19926c0.246998,0.061749 0.448146,0.304823 0.717335,0.358662c0.226994,0.045401 0.560849,-0.26049 0.757183,-0.358662c0.042844,-0.021422 0.079706,-0.053141 0.119564,-0.079706c0.20708,-0.13805 0.549693,-0.079706 0.797031,-0.079706c0.2687,0 0.495514,0.128203 0.717325,0.239118c0.26843,0.134205 0.499988,0.125916 0.757183,0.318804c0.272205,0.204154 0.418365,0.358513 0.557923,0.637629c0.131828,0.263636 0.190092,0.4292 0.39853,0.637629c0.220433,0.220443 0.55957,0.36033 0.797021,0.597781c0.142734,0.142724 0.232307,0.530668 0.278976,0.717335c0.073185,0.292728 0.139219,0.59829 0,0.876737c-0.150694,0.301377 -0.331458,0.58319 -0.478227,0.876737c-0.144422,0.288843 -0.548495,0.530918 -0.797041,0.717335c-0.342553,0.256925 -0.750232,0.272015 -1.075987,0.597771c-0.374652,0.374652 -0.410005,0.595084 -0.757193,1.115855c-0.256536,0.384808 0.048746,0.555706 0.358672,0.478217c0.328042,-0.082003 0.631886,-0.157974 0.956443,-0.239108c0.053131,-0.013283 0.106271,-0.026565 0.159402,-0.039848c0.399549,-0.09989 0.716885,-0.418335 1.115855,-0.518075c0.496682,-0.124178 1.540831,0.645538 1.992582,0.916585c0.356206,0.213721 -0.06896,0.632266 -0.239118,0.717335c-0.316447,0.158234 -0.632156,0.19926 -0.996281,0.19926c-0.235683,0 -0.491849,-0.074463 -0.717335,-0.119554c-0.304753,-0.060951 -0.517136,-0.060481 -0.757183,0.119554c-0.266872,0.200149 -0.235593,0.457534 -0.079706,0.717335c0.155737,0.259542 0.409666,0.443122 0.478217,0.717325c0.086507,0.346009 -0.193118,0.530339 -0.438369,0.677487c-0.246219,0.147737 -0.671305,-0.039858 -0.956433,-0.039858c-0.361239,0 -0.710504,0.18418 -0.996291,0.39852c-0.129511,0.097123 -0.242754,0.612362 -0.278966,0.757183c-0.013293,0.053131 -0.026575,0.106271 -0.039858,0.159402c-0.097143,0.388563 0.027384,0.586505 0.159412,0.916595c0.095575,0.238938 0.327613,0.455966 0.438369,0.677477c0.13827,0.276539 0.228892,0.458812 0.079706,0.757183c-0.127164,0.254328 -0.175321,0.462157 -0.239118,0.717335c-0.044692,0.178777 0.20715,0.657353 0.278966,0.836889c0.144042,0.360111 0.010097,0.428282 -0.239108,0.677477c-0.220523,0.220523 -0.550902,0.275451 -0.797041,0.39852c-0.228892,0.114441 -0.680033,-0.020563 -0.916585,-0.079706c-0.266682,-0.066663 -0.514719,0.058104 -0.717335,0.159412c-0.321711,0.16085 -0.320692,0.316318 -0.557923,0c-0.251562,-0.335423 -0.46024,-0.685257 -0.557923,-1.075997c-0.013283,-0.053141 -0.026565,-0.106271 -0.039848,-0.159412c-0.066773,-0.267032 -0.039858,-0.595304 -0.039858,-0.876737c0,-0.287265 0.079706,-0.543911 0.079706,-0.836889c0,-0.315569 -0.753608,0.277538 -0.956443,0.358672c-0.093928,0.037571 -0.185978,0.079696 -0.278966,0.119554c-0.398221,0.170658 -0.358662,0.534543 -0.358662,0.876737c0,0.341075 0.19926,0.601526 0.19926,0.956443c0,0.341974 -0.402905,0.438369 -0.677477,0.438369c-0.390481,0 -0.571455,-0.451901 -0.836889,-0.717335c-0.253939,-0.253929 -0.687154,-0.537409 -0.836889,-0.836889c-0.211904,-0.423788 -0.28354,-0.664084 0.159402,-0.996291c0.253809,-0.190352 0.607628,-0.225666 0.797041,-0.478227c0.198981,-0.265304 0.481123,-0.6369 0,-0.757173c-0.327853,-0.081963 -0.455047,-0.195935 -0.836889,-0.119564c-0.066413,0.013283 -0.132837,0.026575 -0.19926,0.039858c-0.658601,0.131718 -0.654087,0.071467 -1.275257,-0.239118c-0.447007,-0.223499 -0.600198,-0.560349 -0.916585,-0.876727c-0.294546,-0.294546 -0.461678,-0.691029 -0.557923,-1.076007c-0.088585,-0.354338 -0.193458,-0.694105 -0.278966,-1.036139c-0.070049,-0.280185 -0.079706,-0.624746 -0.079706,-0.916595c0,-0.296643 -0.079696,-0.612641 -0.079696,-0.916585c0,-0.332097 0,-0.664204 0,-0.996301c0,-0.336082 0.039848,-0.633234 0.039848,-0.956443c0,-0.276869 0.054169,-0.615218 0.119554,-0.876737c0.006442,-0.025776 0,-0.053131 0,-0.079706c0,-0.339907 0.196823,-0.691319 0.318814,-0.996291c0.10748,-0.26872 0.274272,-0.548555 0.39852,-0.797031c0.13011,-0.260241 0.26057,-0.480284 0.438359,-0.717335c0.19196,-0.255946 0.396383,-0.515498 0.597781,-0.757183c0.346878,-0.416257 0.707438,-0.80564 1.115855,-1.155703c0.238659,-0.204563 0.356086,-0.546038 0.637629,-0.757183c0.348336,-0.261249 0.651581,-0.538498 0.996291,-0.797031c0.262058,-0.196544 0.501207,-0.423558 0.677487,-0.717335c0.143373,-0.238978 0.224328,-0.463446 0.438359,-0.677477c0.052611,-0.052611 0.229541,-0.134694 0.278966,-0.159412z"/>
  <path opacity="0.616667" fill="#ffffff" stroke-width="10" stroke-miterlimit="4" stroke-dashoffset="0" id="path5361" d="m21.706205,24.419683a0.67748,0.67748 0 1 1 -1.354959,0a0.67748,0.67748 0 1 1 1.354959,0z"/>
  <path opacity="0.544444" fill="#ffffff" stroke-width="10" stroke-miterlimit="4" stroke-dashoffset="0" id="path5363" d="m15.210377,19.039728a0.358666,0.358666 0 1 1 -0.717332,0a0.358666,0.358666 0 1 1 0.717332,0z"/>
  <path opacity="0.544444" fill="#c2c3be" stroke-width="10" stroke-miterlimit="4" stroke-dashoffset="0" id="path5365" d="m31.469976,23.66247a0.67748,0.67748 0 1 1 -1.354959,0a0.67748,0.67748 0 1 1 1.354959,0z"/>
  <path opacity="0.566667" fill="#c2c3be" stroke-width="10" stroke-miterlimit="4" stroke-dashoffset="0" id="path5367" d="m26.368926,33.86457a0.67748,0.67748 0 1 1 -1.354959,0a0.67748,0.67748 0 1 1 1.354959,0z"/>
  <path opacity="0.616667" fill="#ffffff" stroke-width="10" stroke-miterlimit="4" stroke-dashoffset="0" id="path5369" d="m30.593218,23.821889a0.43837,0.43837 0 1 1 -0.876739,0a0.43837,0.43837 0 1 1 0.876739,0z"/>
  <path opacity="0.616667" fill="#ffffff" stroke-width="10" stroke-miterlimit="4" stroke-dashoffset="0" id="path5371" d="m22.304029,34.342778a0.358666,0.358666 0 1 1 -0.717332,0a0.358666,0.358666 0 1 1 0.717332,0z"/>
  <path opacity="0.616667" fill="#ffffff" stroke-width="10" stroke-miterlimit="4" stroke-dashoffset="0" id="path5373" d="m28.9195,29.72a0.43837,0.43837 0 1 1 -0.876739,0a0.43837,0.43837 0 1 1 0.876739,0z"/>
  <path opacity="0.616667" fill="#ffffff" stroke-width="10" stroke-miterlimit="4" stroke-dashoffset="0" id="path5375" d="m34.100146,18.322359a0.43837,0.43837 0 1 1 -0.876739,0a0.43837,0.43837 0 1 1 0.876739,0z"/>
  <path opacity="0.616667" fill="#ffffff" stroke-width="10" stroke-miterlimit="4" stroke-dashoffset="0" id="path5377" d="m31.071394,19.11942a0.43837,0.43837 0 1 1 -0.876739,0a0.43837,0.43837 0 1 1 0.876739,0z"/>
  <path opacity="0.616667" fill="#ffffff" stroke-width="10" stroke-miterlimit="4" stroke-dashoffset="0" id="path5379" d="m32.267035,14.655939a0.43837,0.43837 0 1 1 -0.876739,0a0.43837,0.43837 0 1 1 0.876739,0z"/>
  <path opacity="0.616667" fill="#ffffff" stroke-width="10" stroke-miterlimit="4" stroke-dashoffset="0" id="path5381" d="m23.419869,27.88679a0.43837,0.43837 0 1 1 -0.876739,0a0.43837,0.43837 0 1 1 0.876739,0z"/>
  <path fill="#ffffff" fill-rule="evenodd" stroke-width="1px" id="path5383" d="m22.421819,32.413474c0.200229,-0.135513 0.782779,-0.725674 1.182019,-1.021378c0.07693,-0.056976 0.147747,-0.121591 0.221631,-0.182392c0.398141,-0.327653 0.745139,-0.848434 1.034272,-1.276736c0.458692,-0.679474 0.660159,-1.289828 0.812631,-2.042757c0.193737,-0.956583 0.242674,-0.317656 0.036952,0.29182c-0.032108,0.095126 -0.049256,0.194546 -0.073884,0.29183c-0.100928,0.39869 -0.140796,0.821839 -0.295505,1.203771c-0.208798,0.515488 -0.602824,0.95862 -0.738767,1.4956c-0.072525,0.286506 -0.171257,0.6367 -0.110806,0.875469c0.072226,0.285308 0.493177,-0.344741 0.775699,-0.437739c0.384449,-0.126545 0.480194,-0.209297 0.480194,0.218875c0,0.258783 -0.132148,0.616017 -0.184689,0.875469c-0.090592,0.447327 1.192306,0.070408 1.477524,0c0.932434,-0.23021 1.571991,-0.545868 2.327116,-1.167298c0.831526,-0.684308 1.523124,-1.431194 2.290164,-2.188677c0.617145,-0.609455 0.907547,-0.991647 0.517136,0.036472c-0.036932,0.097273 -0.073884,0.194556 -0.110816,0.29183c-0.036942,0.097273 -0.073874,0.194546 -0.110806,0.29182c-0.204463,0.538428 -0.577537,1.134091 -1.071213,1.459118c-0.769207,0.50642 -1.267787,1.446754 -2.105485,1.860375c-0.339028,0.167412 -0.693496,0.232996 -1.034272,0.401267c-0.341984,0.16887 0.665123,0.287815 0.849582,0.328302c1.854452,0.406959 -1.500664,0.583649 -1.920786,0.583649c-0.692897,0 -1.039355,-0.142904 -1.588339,0.182392c-0.187625,0.111165 0.873132,0.53723 0.923446,0.547167c0.432846,0.085489 0.818982,0.364774 1.292845,0.364774c0.786744,0 -1.64111,0.242324 -2.327116,0.072965c-0.575,-0.141965 -1.11989,-0.258253 -1.699145,-0.401267c-0.293957,-0.072565 -0.588882,-0.027874 -0.849582,0.036482c-0.051832,0.012793 0.036942,0.752709 0.036942,0.838996c0,0.540256 -0.143213,0.961906 -0.40632,0.182392c-0.141745,-0.419923 -0.40633,-0.863255 -0.40633,-1.313208c0,-0.284909 -0.380973,0.428681 -0.554068,0.656604c-0.243752,0.320962 -0.723856,0.780592 -0.812641,0.802514c-0.012094,0.002986 0.238998,-0.50636 0.332437,-0.875479c0.070218,-0.277348 0.523897,-1.019711 0.221631,-1.094333c-0.282252,-0.069689 -0.671165,-0.015829 -0.960388,-0.072965c-0.428971,-0.08472 -0.888911,-0.165324 -1.292845,-0.364774c-0.781741,-0.386007 -2.00211,-0.740525 -2.844242,-0.948434c-0.077579,-0.019145 -1.347343,-1.367028 -0.147757,-0.182382c0.791868,0.782001 2.027786,1.313208 3.139757,1.313208c0.356305,0 0.885466,-0.136532 1.218961,-0.218875c0.200858,-0.049585 0.478356,-0.349464 0.701825,-0.437729c0.242514,-0.095805 -0.386856,-0.349015 -0.554078,-0.547167c-0.06156,-0.072965 -0.123119,-0.14592 -0.184689,-0.218875c-0.662167,-0.784707 -0.894604,-1.868374 -1.662213,-2.626416c-0.123489,-0.121951 -1.923373,-2.196876 -1.071213,-1.4956c0.881151,0.725145 1.69553,1.369814 2.437922,2.225159c0.380694,0.438608 0.708027,1.010802 1.071213,1.459128c0.365444,0.451102 0.288374,-0.094087 0.184689,-0.401257c-0.22229,-0.658541 -0.110816,-1.573698 -0.110816,-2.261642c0,-0.912381 0.477198,0.936599 0.517136,1.094343c0.11479,0.453459 0.352201,1.044009 0.701825,0.583649c0.361259,-0.47567 0.40632,-0.565603 0.40632,0.036472c0,0.048637 0,0.097273 0,0.14591c0,0.226395 -0.012164,0.487095 0.036942,0.729559z"/>
  <path opacity="0.32" fill="#a3a4a0" stroke-width="1" stroke-miterlimit="4" stroke-dashoffset="0" id="path5387" d="m29.930516,19.584381a1.765468,1.677192 0 1 1 -3.530937,0a1.765468,1.677192 0 1 1 3.530937,0z"/>
  <path opacity="0.32" fill="#a3a4a0" stroke-width="1" stroke-miterlimit="4" stroke-dashoffset="0" id="path5389" d="m31.872532,23.556643a1.765468,1.677192 0 1 1 -3.530937,0a1.765468,1.677192 0 1 1 3.530937,0z"/>
  <path opacity="0.32" fill="#a3a4a0" stroke-width="1" stroke-miterlimit="4" stroke-dashoffset="0" id="path5391" d="m33.81455,23.499241a1.147554,1.090174 0 1 1 -2.295109,0a1.147554,1.090174 0 1 1 2.295109,0z"/>
  <path opacity="0.32" fill="#a3a4a0" stroke-width="1" stroke-miterlimit="4" stroke-dashoffset="0" id="path5393" d="m24.016207,18.00426a2.736476,2.599647 0 1 1 -5.472952,0a2.736476,2.599647 0 1 1 5.472952,0z"/>
  <path opacity="0.32" fill="#a3a4a0" stroke-width="1" stroke-miterlimit="4" stroke-dashoffset="0" id="path5395" d="m18.719814,24.152501a3.177843,3.018945 0 1 1 -6.355686,0a3.177843,3.018945 0 1 1 6.355686,0z"/>
  <path opacity="0.32" fill="#a3a4a0" stroke-width="1" stroke-miterlimit="4" stroke-dashoffset="0" id="path5397" d="m22.162468,26.946356a2.471656,2.348069 0 1 1 -4.943311,0a2.471656,2.348069 0 1 1 4.943311,0z"/>
  <path opacity="0.32" fill="#a3a4a0" stroke-width="1" stroke-miterlimit="4" stroke-dashoffset="0" id="path5399" d="m20.57356,20.378808a2.471656,2.348069 0 1 1 -4.943311,0a2.471656,2.348069 0 1 1 4.943311,0z"/>
  <path fill="#ffffff" stroke-width="1" stroke-miterlimit="4" stroke-dashoffset="0" id="path5401" d="m23.177537,33.61981a0.662047,0.662047 0 1 1 -1.324104,0a0.662047,0.662047 0 1 1 1.324104,0z"/>
  <path fill="none" stroke="#888a85" stroke-width="0.722188" stroke-miterlimit="4" stroke-dashoffset="0" id="path9201" d="m37.500049,23.974238a13.500657,13.500657 0 1 1 -27.001314,0a13.500657,13.500657 0 1 1 27.001314,0z"/>
  <path fill="none" stroke="#ffffff" stroke-width="0.760894" stroke-linecap="square" stroke-miterlimit="4" id="path9203" d="m31.363874,13.92256a7.382032,7.382051 0 1 1 -14.764063,20.138389a7.382032,7.382051 0 1 1 14.764063,-20.138389z"/>
 </g>
</svg>