<svg width="48" height="48" xmlns="http://www.w3.org/2000/svg" xmlns:xlink="http://www.w3.org/1999/xlink">
 <defs>
  <linearGradient id="linearGradient8397">
   <stop stop-color="#ffffff" offset="0" id="stop8400"/>
   <stop stop-color="#ffffff" stop-opacity="0" offset="1" id="stop8402"/>
  </linearGradient>
  <linearGradient y2="-Infinity" y1="-Infinity" xlink:href="#linearGradient8397" x2="Infinity" x1="Infinity" id="linearGradient13503"/>
  <linearGradient id="linearGradient8315">
   <stop stop-color="#ffffff" offset="0" id="stop8317"/>
   <stop stop-color="#ffffff" stop-opacity="0" offset="1" id="stop8319"/>
  </linearGradient>
  <linearGradient y2="-Infinity" y1="-Infinity" xlink:href="#linearGradient8315" x2="Infinity" x1="Infinity" id="linearGradient13501"/>
  <linearGradient id="linearGradient8381">
   <stop stop-color="#ffffff" offset="0" id="stop8383"/>
   <stop stop-color="#ffffff" stop-opacity="0" offset="1" id="stop8385"/>
  </linearGradient>
  <linearGradient y2="-Infinity" y1="-Infinity" xlink:href="#linearGradient8381" x2="Infinity" x1="Infinity" id="linearGradient13499"/>
  <linearGradient id="linearGradient8331">
   <stop stop-color="#ffffff" offset="0" id="stop8333"/>
   <stop stop-color="#ffffff" stop-opacity="0" offset="1" id="stop8335"/>
  </linearGradient>
  <linearGradient y2="-Infinity" y1="-Infinity" xlink:href="#linearGradient8331" x2="Infinity" x1="Infinity" id="linearGradient13497"/>
  <linearGradient id="linearGradient8302">
   <stop stop-color="#ffffff" offset="0" id="stop8304"/>
   <stop stop-color="#ffffff" stop-opacity="0" offset="1" id="stop8306"/>
  </linearGradient>
  <linearGradient y2="-Infinity" y1="-Infinity" xlink:href="#linearGradient8302" x2="Infinity" x1="Infinity" id="linearGradient13495"/>
  <linearGradient y2="-Infinity" y1="-Infinity" xlink:href="#linearGradient6538" x2="Infinity" x1="Infinity" id="linearGradient13143"/>
  <linearGradient y2="-Infinity" y1="-Infinity" xlink:href="#linearGradient6549" x2="Infinity" x1="Infinity" id="linearGradient13141"/>
  <linearGradient y2="-Infinity" y1="-Infinity" xlink:href="#linearGradient6527" x2="Infinity" x1="Infinity" id="linearGradient13139"/>
  <linearGradient y2="-Infinity" y1="-Infinity" xlink:href="#linearGradient6538" x2="Infinity" x1="Infinity" id="linearGradient13137"/>
  <linearGradient y2="-Infinity" y1="-Infinity" xlink:href="#linearGradient6513" x2="Infinity" x1="Infinity" id="linearGradient13135"/>
  <linearGradient y2="-Infinity" y1="-Infinity" xlink:href="#linearGradient6497" x2="Infinity" x1="Infinity" id="linearGradient13133"/>
  <linearGradient y2="-Infinity" y1="-Infinity" xlink:href="#linearGradient6470" x2="Infinity" x1="Infinity" id="linearGradient13131"/>
  <radialGradient xlink:href="#linearGradient5123" r="14.50138" id="radialGradient13211" gradientUnits="userSpaceOnUse" gradientTransform="matrix(0.930946,6.185702e-16,-2.842711e-16,0.448244,245.3644,184.9256)" fy="-343.95554" fx="-229.75" cy="-343.95554" cx="-229.75"/>
  <linearGradient y2="-Infinity" y1="-Infinity" xlink:href="#linearGradient6538" x2="Infinity" x1="Infinity" id="linearGradient13157"/>
  <linearGradient id="linearGradient6549">
   <stop stop-color="#ffffff" offset="0" id="stop6551"/>
   <stop stop-color="#ffffff" stop-opacity="0" offset="1" id="stop6553"/>
  </linearGradient>
  <linearGradient y2="-Infinity" y1="-Infinity" xlink:href="#linearGradient6549" x2="Infinity" x1="Infinity" id="linearGradient13155"/>
  <linearGradient id="linearGradient6527">
   <stop stop-color="#ffffff" offset="0" id="stop6530"/>
   <stop stop-color="#ffffff" stop-opacity="0" offset="1" id="stop6532"/>
  </linearGradient>
  <linearGradient y2="-Infinity" y1="-Infinity" xlink:href="#linearGradient6527" x2="Infinity" x1="Infinity" id="linearGradient13153"/>
  <linearGradient id="linearGradient6538">
   <stop stop-color="#ffffff" offset="0" id="stop6540"/>
   <stop stop-color="#ffffff" stop-opacity="0" offset="1" id="stop6542"/>
  </linearGradient>
  <linearGradient y2="-Infinity" y1="-Infinity" xlink:href="#linearGradient6538" x2="Infinity" x1="Infinity" id="linearGradient13151"/>
  <linearGradient id="linearGradient6513">
   <stop stop-color="#ffffff" offset="0" id="stop6515"/>
   <stop stop-color="#ffffff" stop-opacity="0" offset="1" id="stop6517"/>
  </linearGradient>
  <linearGradient y2="-Infinity" y1="-Infinity" xlink:href="#linearGradient6513" x2="Infinity" x1="Infinity" id="linearGradient13149"/>
  <linearGradient id="linearGradient6497">
   <stop stop-color="#ffffff" offset="0" id="stop6499"/>
   <stop stop-color="#ffffff" stop-opacity="0" offset="1" id="stop6501"/>
  </linearGradient>
  <linearGradient y2="-Infinity" y1="-Infinity" xlink:href="#linearGradient6497" x2="Infinity" x1="Infinity" id="linearGradient13147"/>
  <linearGradient id="linearGradient6470">
   <stop stop-color="#ffffff" offset="0" id="stop6472"/>
   <stop stop-color="#ffffff" stop-opacity="0" offset="1" id="stop6474"/>
  </linearGradient>
  <linearGradient y2="-Infinity" y1="-Infinity" xlink:href="#linearGradient6470" x2="Infinity" x1="Infinity" id="linearGradient13145"/>
  <linearGradient id="linearGradient5123">
   <stop stop-color="#ffffff" offset="0" id="stop5125"/>
   <stop stop-color="#ffffff" stop-opacity="0" offset="1" id="stop5127"/>
  </linearGradient>
  <radialGradient xlink:href="#linearGradient5123" r="14.50138" id="radialGradient13068" gradientUnits="userSpaceOnUse" gradientTransform="matrix(0.930946,6.185702e-16,-2.842711e-16,0.448244,229.9269,180.9261)" fy="-343.95554" fx="-229.75" cy="-343.95554" cx="-229.75"/>
 </defs>
 <g>
  <title>background</title>
  <rect fill="none" id="canvas_background" height="402" width="582" y="-1" x="-1"/>
 </g>
 <g>
  <title>Layer 1</title>
  <path fill="#555753" stroke-miterlimit="2" stroke-dashoffset="0" id="path12827" d="m24.479614,1.999516c-2.77242,0 -5.10823,1.57371 -6.40625,3.8125c-0.94436,-0.47504 -1.96519,-0.8125 -3.09375,-0.8125c-3.864,0 -7,3.136 -7,7c0,3.864 3.136,7 7,7c2.41967,0 4.43009,-1.31932 5.6875,-3.1875c1.1342,0.68962 2.38898,1.1875 3.8125,1.1875c0.91312,0 1.75295,-0.23202 2.5625,-0.53125c0.50994,0.86773 1.17912,1.57972 2,2.15625c-0.00724,0.13038 -0.0625,0.24282 -0.0625,0.375c0,3.864 3.13599,7 7,7c3.864,0 7,-3.136 7,-7c0,-2.36969 -1.25898,-4.35834 -3.0625,-5.625c0.00724,-0.13038 0.0625,-0.24282 0.0625,-0.375c0,-3.864 -3.13599,-7 -7,-7c-0.6227,0 -1.17519,0.22219 -1.75,0.375c-1.19453,-2.55884 -3.74134,-4.375 -6.75,-4.375z"/>
  <path fill="url(#linearGradient13495)" stroke-miterlimit="2" stroke-dashoffset="0" id="path12829" d="m24.479614,2.999516c-2.78048,0 -5.13451,1.76185 -6.0625,4.21875c-0.98542,-0.70944 -2.13143,-1.21875 -3.4375,-1.21875c-3.312,0 -6,2.688 -6,6c0,3.312 2.688,6 6,6c2.42775,0 4.49324,-1.45558 5.4375,-3.53125c1.12076,0.91756 2.50214,1.53125 4.0625,1.53125c1.07454,0 2.04428,-0.31896 2.9375,-0.78125c0.3984,0.99976 1.10114,1.78632 1.9375,2.4375c-0.18001,0.59562 -0.375,1.18965 -0.375,1.84375c0,3.588 2.912,6.5 6.5,6.5c3.588,0 6.5,-2.912 6.5,-6.5c0,-2.36079 -1.33433,-4.33019 -3.21875,-5.46875c0.06259,-0.34723 0.21875,-0.66608 0.21875,-1.03125c0,-3.312 -2.688,-6 -6,-6c-0.85298,0 -1.6713,0.17868 -2.40625,0.5c-0.85377,-2.59388 -3.21524,-4.49999 -6.09375,-4.5z"/>
  <path fill="#888a85" stroke-miterlimit="2" stroke-dashoffset="0" id="path12831" d="m41.979546,19.499595a6.499997,6.499997 0 1 1 -13.000003,0a6.499997,6.499997 0 1 1 13.000003,0z"/>
  <path fill="#888a85" stroke-miterlimit="2" stroke-dashoffset="0" id="path12835" d="m29.97961,9.499537a5.500003,5.500003 0 1 1 -11.000006,0a5.500003,5.500003 0 1 1 11.000006,0z"/>
  <path opacity="0.494444" fill="url(#linearGradient13497)" stroke-miterlimit="2" stroke-dashoffset="0" id="path12837" d="m29.97961,9.499537a5.500003,5.500003 0 1 1 -11.000006,0a5.500003,5.500003 0 1 1 11.000006,0z"/>
  <path fill="#888a85" stroke-miterlimit="2" stroke-dashoffset="0" id="path12841" d="m37.979624,13.499466a5.499999,5.499999 0 1 1 -11.000007,0a5.499999,5.499999 0 1 1 11.000007,0z"/>
  <path opacity="0.494444" fill="url(#linearGradient13499)" stroke-miterlimit="2" stroke-dashoffset="0" id="path12843" d="m37.979624,13.499466a5.499999,5.499999 0 1 1 -11.000007,0a5.499999,5.499999 0 1 1 11.000007,0z"/>
  <path fill="#888a85" stroke-miterlimit="2" stroke-dashoffset="0" id="path12847" d="m19.97962,11.999449a4.999997,4.999997 0 1 1 -10.000006,0a4.999997,4.999997 0 1 1 10.000006,0z"/>
  <path opacity="0.494444" fill="url(#linearGradient13501)" stroke-miterlimit="2" stroke-dashoffset="0" id="path12849" d="m19.97962,11.999449a4.999997,4.999997 0 1 1 -10.000006,0a4.999997,4.999997 0 1 1 10.000006,0z"/>
  <path fill="#888a85" stroke-miterlimit="2" stroke-dashoffset="0" id="path12853" d="m30.979616,15.999454a7.000002,7.000002 0 1 1 -14.000014,0a7.000002,7.000002 0 1 1 14.000014,0z"/>
  <path opacity="0.494444" fill="url(#linearGradient13503)" stroke-miterlimit="2" stroke-dashoffset="0" id="path12855" d="m30.979626,15.999454a7.000002,7.000002 0 1 1 -14.000014,0a7.000002,7.000002 0 1 1 14.000014,0z"/>
  <path fill="#888a85" stroke="#555753" stroke-miterlimit="2" stroke-dashoffset="0" id="path12859" d="m31.493933,14.499475c-2.27083,0 -4.10991,1.55028 -4.71875,3.625c-0.69323,-0.36383 -1.44451,-0.625 -2.28125,-0.625c-2.76,0 -5.00001,2.23999 -5,5c0,0.57893 0.16252,1.1077 0.34375,1.625c-1.37347,0.77074 -2.34375,2.189 -2.34375,3.875c0,2.484 2.016,4.50001 4.5,4.5c0.17713,0 18.82287,0 19,0c2.48399,0 4.5,-2.016 4.5,-4.5c0,-1.686 -0.97028,-3.10426 -2.34375,-3.875c0.18124,-0.51729 0.34375,-1.04608 0.34375,-1.625c0,-2.76 -2.24,-4.99999 -5,-5c-0.83674,0 -1.58802,0.26117 -2.28125,0.625c-0.60884,-2.07472 -2.44792,-3.625 -4.71875,-3.625z"/>
  <path fill="url(#linearGradient13131)" stroke-width="1" stroke-miterlimit="2" stroke-dashoffset="0" id="path12861" d="m31.493933,14.999475c-2.18972,0 -3.7236,1.33577 -4.39555,3.84352c-0.66846,-0.34362 -1.54759,-0.83335 -2.35445,-0.83335c-2.71651,0 -4.75514,1.93882 -4.75513,4.54554c0,0.54677 0.26721,1.33344 0.44196,1.82201c-1.32443,0.72795 -2.43683,1.8905 -2.43683,3.37255c0,2.34605 1.54617,4.25009 4.33928,4.25009c0.17081,0 18.15064,0 18.32144,0c2.77101,0 4.33928,-1.90404 4.33928,-4.25009c0,-1.59237 -1.1124,-2.66669 -2.43683,-3.39464c0.17476,-0.48856 0.46407,-1.25316 0.46407,-1.79992c0,-2.60671 -2.11581,-4.56763 -4.77723,-4.56764c-0.80687,0 -1.64181,0.48974 -2.31027,0.83336c-0.64885,-2.42154 -2.25001,-3.82143 -4.43974,-3.82143z"/>
  <path fill="#888a85" stroke-miterlimit="2" stroke-dashoffset="0" id="path12863" d="m34.993933,19.499498a3.500001,3.500001 0 1 1 -7.000002,0a3.500001,3.500001 0 1 1 7.000002,0z"/>
  <path opacity="0.477778" fill="url(#linearGradient13133)" stroke-miterlimit="2" stroke-dashoffset="0" id="path12865" d="m34.993933,19.499498a3.500001,3.500001 0 1 1 -7.000002,0a3.500001,3.500001 0 1 1 7.000002,0z"/>
  <rect fill="#888a85" stroke-miterlimit="2" stroke-dashoffset="0" y="21.999485" x="21.993943" width="20" id="rect12867" height="9"/>
  <path fill="#888a85" stroke-miterlimit="2" stroke-dashoffset="0" id="path12869" d="m24.993835,27.999649a2.999999,2.999999 0 1 1 -5.999997,0a2.999999,2.999999 0 1 1 5.999997,0z"/>
  <path fill="#888a85" stroke-miterlimit="2" stroke-dashoffset="0" id="path12871" d="m41.994003,22.499398a3.500001,3.500001 0 1 1 -7.000002,0a3.500001,3.500001 0 1 1 7.000002,0z"/>
  <path opacity="0.477778" fill="url(#linearGradient13135)" stroke-miterlimit="2" stroke-dashoffset="0" id="path12873" d="m41.993933,22.499498a3.500001,3.500001 0 1 1 -7.000002,0a3.500001,3.500001 0 1 1 7.000002,0z"/>
  <path fill="#888a85" stroke-miterlimit="2" stroke-dashoffset="0" id="path12875" d="m27.993933,22.499498a3.500001,3.500001 0 1 1 -7.000002,0a3.500001,3.500001 0 1 1 7.000002,0z"/>
  <path opacity="0.477778" fill="url(#linearGradient13137)" stroke-miterlimit="2" stroke-dashoffset="0" id="path12877" d="m27.993933,22.499498a3.500001,3.500001 0 1 1 -7.000002,0a3.500001,3.500001 0 1 1 7.000002,0z"/>
  <path fill="#888a85" stroke-miterlimit="2" stroke-dashoffset="0" id="path12879" d="m30.462683,19.030725c-3.57938,0 -6.46875,2.92063 -6.46875,6.5c0,2.37068 1.34943,4.33779 3.25,5.46875l6.46875,0c1.90057,-1.13096 3.25,-3.12931 3.25,-5.5c0,-3.57938 -2.92063,-6.46875 -6.5,-6.46875z"/>
  <path opacity="0.477778" fill="url(#linearGradient13139)" stroke-miterlimit="2" stroke-dashoffset="0" id="path12881" d="m30.493933,18.999475c-3.588,0 -6.5,2.91201 -6.5,6.5c0,2.3764 1.34485,4.36632 3.25,5.5l6.5,0c1.90515,-1.13368 3.25,-3.1236 3.25,-5.5c0,-3.588 -2.912,-6.49999 -6.5,-6.5z"/>
  <path opacity="0.477778" fill="url(#linearGradient13141)" stroke-miterlimit="2" stroke-dashoffset="0" id="path12883" d="m24.993935,27.999549a2.999999,2.999999 0 1 1 -5.999997,0a2.999999,2.999999 0 1 1 5.999997,0z"/>
  <path fill="#555753" fill-rule="evenodd" stroke-width="1px" id="path12885" d="m43.950333,22.665515c-0.00153,2.68456 -3.26926,3.71395 -3.26926,3.71395c0,0 2.34874,-1.62595 2.33685,-3.70501c0,0 0.93241,-0.00894 0.93241,-0.00894z"/>
  <path fill="#888a85" stroke-miterlimit="2" stroke-dashoffset="0" id="path12887" d="m38.993849,26.999785a3.999999,3.999999 0 1 1 -7.999999,0a3.999999,3.999999 0 1 1 7.999999,0z"/>
  <path opacity="0.477778" fill="url(#linearGradient13143)" stroke-miterlimit="2" stroke-dashoffset="0" id="path12889" d="m38.993849,26.999785a3.999999,3.999999 0 1 1 -7.999999,0a3.999999,3.999999 0 1 1 7.999999,0z"/>
  <path fill="url(#radialGradient13211)" stroke-width="1" stroke-linejoin="round" stroke-miterlimit="4" id="path13209" d="m31.62636,14.99952c-2.0001,0 -3.68559,1.0795 -4.53058,2.61494c-0.5949,-0.22191 -1.24464,-0.35337 -1.92595,-0.35337c-2.8302,0 -5.11752,2.11817 -5.11752,4.7175c0,0.45375 0.14453,0.85683 0.27514,1.27213c-1.38232,0.86527 -2.34784,2.25357 -2.34784,3.90473c0,2.65283 0.65163,4.99335 5.22758,4.80585c0.04512,-0.00185 17.45149,0.09698 17.70041,-0.01803c3.08522,0.22595 4.07202,-2.44573 4.07202,-4.69946c0,-1.70051 -0.83695,-3.04985 -2.30928,-3.87759c0.04797,-0.25856 -0.03855,-0.55119 -0.03855,-0.82225c0,-2.59932 -2.30565,-4.71749 -5.13588,-4.71749c-0.39349,0 -0.7324,0.13482 -1.10053,0.21202c-0.73847,-1.76812 -2.58502,-3.03898 -4.76902,-3.03898z"/>
  <path fill="#888a85" stroke="#555753" stroke-miterlimit="2" stroke-dashoffset="0" id="path12893" d="m16.479636,10.483468c-2.27083,0 -4.10991,1.55028 -4.71875,3.625c-0.69323,-0.36383 -1.44451,-0.625 -2.28125,-0.625c-2.76,0 -5.00001,2.23999 -5,5c0,0.57893 0.16252,1.1077 0.34375,1.625c-1.37347,0.77074 -2.34375,2.189 -2.34375,3.875c0,2.484 2.016,4.50001 4.5,4.5c0.17713,0 18.82287,0 19,0c2.48399,0 4.5,-2.016 4.5,-4.5c0,-1.686 -0.97028,-3.10426 -2.34375,-3.875c0.18124,-0.51729 0.34375,-1.04608 0.34375,-1.625c0,-2.76 -2.24,-4.99999 -5,-5c-0.83674,0 -1.58802,0.26117 -2.28125,0.625c-0.60884,-2.07472 -2.44792,-3.625 -4.71875,-3.625z"/>
  <path fill="url(#linearGradient13145)" stroke-width="1" stroke-miterlimit="2" stroke-dashoffset="0" id="path12895" d="m16.479636,10.983468c-2.18972,0 -3.7236,1.33577 -4.39555,3.84352c-0.66846,-0.34362 -1.54759,-0.83335 -2.35445,-0.83335c-2.71651,0 -4.75514,1.93882 -4.75513,4.54554c0,0.54677 0.26721,1.33344 0.44196,1.82201c-1.32443,0.72795 -2.43683,1.8905 -2.43683,3.37255c0,2.34605 1.54617,4.25009 4.33928,4.25009c0.17081,0 18.15064,0 18.32144,0c2.77101,0 4.33928,-1.90404 4.33928,-4.25009c0,-1.59237 -1.1124,-2.66669 -2.43683,-3.39464c0.17476,-0.48856 0.46407,-1.25316 0.46407,-1.79992c0,-2.60671 -2.11581,-4.56763 -4.77723,-4.56764c-0.80687,0 -1.64181,0.48974 -2.31027,0.83336c-0.64885,-2.42154 -2.25001,-3.82143 -4.43974,-3.82143z"/>
  <path fill="#888a85" stroke-miterlimit="2" stroke-dashoffset="0" id="path12897" d="m19.979635,15.483492a3.500001,3.500001 0 1 1 -7.000001,0a3.500001,3.500001 0 1 1 7.000001,0z"/>
  <path opacity="0.477778" fill="url(#linearGradient13147)" stroke-miterlimit="2" stroke-dashoffset="0" id="path12899" d="m19.979635,15.483492a3.500001,3.500001 0 1 1 -7.000001,0a3.500001,3.500001 0 1 1 7.000001,0z"/>
  <rect fill="#888a85" stroke-miterlimit="2" stroke-dashoffset="0" y="17.983478" x="6.979646" width="20" id="rect12901" height="9"/>
  <path fill="#888a85" stroke-miterlimit="2" stroke-dashoffset="0" id="path12903" d="m9.979537,23.983643a2.999999,2.999999 0 1 1 -5.999997,0a2.999999,2.999999 0 1 1 5.999997,0z"/>
  <path fill="#888a85" stroke-miterlimit="2" stroke-dashoffset="0" id="path12905" d="m26.979705,18.483392a3.500001,3.500001 0 1 1 -7.000002,0a3.500001,3.500001 0 1 1 7.000002,0z"/>
  <path opacity="0.477778" fill="url(#linearGradient13149)" stroke-miterlimit="2" stroke-dashoffset="0" id="path12907" d="m26.979635,18.483492a3.500001,3.500001 0 1 1 -7.000001,0a3.500001,3.500001 0 1 1 7.000001,0z"/>
  <path fill="#888a85" stroke-miterlimit="2" stroke-dashoffset="0" id="path12909" d="m12.979635,18.483492a3.500001,3.500001 0 1 1 -7.000001,0a3.500001,3.500001 0 1 1 7.000001,0z"/>
  <path opacity="0.477778" fill="url(#linearGradient13151)" stroke-miterlimit="2" stroke-dashoffset="0" id="path12911" d="m12.979635,18.483492a3.500001,3.500001 0 1 1 -7.000001,0a3.500001,3.500001 0 1 1 7.000001,0z"/>
  <path fill="#888a85" stroke-miterlimit="2" stroke-dashoffset="0" id="path12913" d="m15.448386,15.014718c-3.57938,0 -6.46875,2.92063 -6.46875,6.5c0,2.37068 1.34943,4.33779 3.25,5.46875l6.46875,0c1.90057,-1.13096 3.25,-3.12931 3.25,-5.5c0,-3.57938 -2.92063,-6.46875 -6.5,-6.46875z"/>
  <path opacity="0.477778" fill="url(#linearGradient13153)" stroke-miterlimit="2" stroke-dashoffset="0" id="path12915" d="m15.479636,14.983468c-3.588,0 -6.5,2.91201 -6.5,6.5c0,2.3764 1.34485,4.36632 3.25,5.5l6.5,0c1.90515,-1.13368 3.25,-3.1236 3.25,-5.5c0,-3.588 -2.912,-6.49999 -6.5,-6.5z"/>
  <path opacity="0.477778" fill="url(#linearGradient13155)" stroke-miterlimit="2" stroke-dashoffset="0" id="path12917" d="m9.979637,23.983543a2.999999,2.999999 0 1 1 -5.999997,0a2.999999,2.999999 0 1 1 5.999997,0z"/>
  <path fill="#555753" fill-rule="evenodd" stroke-width="1px" id="path12919" d="m28.936036,18.649508c-0.00153,2.68456 -3.26926,3.71395 -3.26926,3.71395c0,0 2.34874,-1.62595 2.33685,-3.70501c0,0 0.93241,-0.00894 0.93241,-0.00894z"/>
  <path fill="#888a85" stroke-miterlimit="2" stroke-dashoffset="0" id="path12921" d="m23.979551,22.983778a3.999999,3.999999 0 1 1 -7.999999,0a3.999999,3.999999 0 1 1 7.999999,0z"/>
  <path opacity="0.477778" fill="url(#linearGradient13157)" stroke-miterlimit="2" stroke-dashoffset="0" id="path12923" d="m23.979551,22.983778a3.999999,3.999999 0 1 1 -7.999999,0a3.999999,3.999999 0 1 1 7.999999,0z"/>
  <path fill="url(#radialGradient13068)" stroke-width="1" stroke-linejoin="round" stroke-miterlimit="4" id="path11418" d="m16.18886,11c-2.0001,0 -3.68558,1.0795 -4.53058,2.61494c-0.5949,-0.22191 -1.24463,-0.35337 -1.92595,-0.35337c-2.83021,0 -5.11753,2.11817 -5.11753,4.7175c0,0.45375 0.14453,0.85683 0.27514,1.27213c-1.38232,0.86527 -2.34783,2.25357 -2.34783,3.90473c0,2.65283 0.65162,4.99335 5.22758,4.80585c0.04512,-0.00185 17.45149,0.09698 17.70042,-0.01803c3.08521,0.22595 4.072,-2.44573 4.072,-4.69946c0,-1.70051 -0.83693,-3.04985 -2.30926,-3.87759c0.04796,-0.25856 -0.03856,-0.55119 -0.03856,-0.82225c0,-2.59932 -2.30565,-4.71749 -5.13587,-4.71749c-0.39349,0 -0.7324,0.13482 -1.10054,0.21202c-0.73846,-1.76812 -2.58501,-3.03898 -4.76902,-3.03898z"/>
 </g>
</svg>